<?xml version="1.0" encoding="utf-8"?>
<!-- Generator: Adobe Illustrator 18.0.0, SVG Export Plug-In . SVG Version: 6.00 Build 0)  -->
<!DOCTYPE svg PUBLIC "-//W3C//DTD SVG 1.1//EN" "http://www.w3.org/Graphics/SVG/1.1/DTD/svg11.dtd">
<svg version="1.1" id="Layer_1" xmlns="http://www.w3.org/2000/svg" xmlns:xlink="http://www.w3.org/1999/xlink" x="0px" y="0px"
	 width="30px" height="80px" viewBox="0 0 30 80" enable-background="new 0 0 30 80" xml:space="preserve">
<path id="facebook-icon" fill="#0F80C4" d="M10.7,10H8v4.4h2.7v13.1H16V14.4h3.7L20,10h-4c0,0,0-1.6,0-2.5c0-1,0.2-1.4,1.2-1.4
	c0.8,0,2.8,0,2.8,0V1.5c0,0-3,0-3.6,0c-3.9,0-5.7,1.7-5.7,5C10.7,9.4,10.7,10,10.7,10z"/>
<path id="facebook-icon_1_" fill="#0D6BA8" d="M10.7,60H8v4.4h2.7v13.1H16V64.4h3.7L20,60H16c0,0,0-1.6,0-2.5c0-1,0.2-1.4,1.2-1.4
	c0.8,0,2.8,0,2.8,0v-4.6c0,0-3,0-3.6,0c-3.9,0-5.7,1.7-5.7,5C10.7,59.4,10.7,60,10.7,60z"/>
</svg>
