<?xml version="1.0" encoding="utf-8"?>
<!-- Generator: Adobe Illustrator 18.0.0, SVG Export Plug-In . SVG Version: 6.00 Build 0)  -->
<!DOCTYPE svg PUBLIC "-//W3C//DTD SVG 1.1//EN" "http://www.w3.org/Graphics/SVG/1.1/DTD/svg11.dtd">
<svg version="1.1" id="Layer_1" xmlns="http://www.w3.org/2000/svg" xmlns:xlink="http://www.w3.org/1999/xlink" x="0px" y="0px"
	 width="30px" height="80px" viewBox="0 0 30 80" enable-background="new 0 0 30 80" xml:space="preserve">
<path id="twitter-icon" fill="#0F80C4" d="M27,7.3c-0.9,0.4-1.8,0.7-2.8,0.8c1-0.6,1.8-1.6,2.2-2.7c-1,0.6-2,1-3.1,1.2
	c-0.9-1-2.2-1.6-3.6-1.6c-3.2,0-5.5,3-4.8,6c-4.2-0.2-7.8-2.1-10.2-5.1C3.4,8.1,4,11,6.2,12.5c-0.8-0.1-1.6-0.3-2.2-0.7
	c-0.1,2.3,1.6,4.4,3.9,4.9c-0.7,0.2-1.5,0.2-2.2,0.1c0.6,2,2.4,3.4,4.6,3.4c-2.1,1.6-4.7,2.3-7.3,2c2.2,1.4,4.8,2.2,7.5,2.2
	c9.1,0,14.3-7.7,14-14.6C25.5,9.1,26.3,8.3,27,7.3z"/>
<path id="twitter-icon_1_" fill="#0D6BA8" d="M27,57.3c-0.9,0.4-1.8,0.7-2.8,0.8c1-0.6,1.8-1.6,2.2-2.7c-1,0.6-2,1-3.1,1.2
	c-0.9-1-2.2-1.6-3.6-1.6c-3.2,0-5.5,3-4.8,6c-4.2-0.2-7.8-2.1-10.2-5.1C3.4,58.1,4,61,6.2,62.5c-0.8-0.1-1.6-0.3-2.2-0.7
	c-0.1,2.3,1.6,4.4,3.9,4.9c-0.7,0.2-1.5,0.2-2.2,0.1c0.6,2,2.4,3.4,4.6,3.4c-2.1,1.6-4.7,2.3-7.3,2c2.2,1.4,4.8,2.2,7.5,2.2
	c9.1,0,14.3-7.7,14-14.6C25.5,59.1,26.3,58.3,27,57.3z"/>
</svg>
