<?xml version="1.0" encoding="utf-8"?>
<!-- Generator: Adobe Illustrator 18.0.0, SVG Export Plug-In . SVG Version: 6.00 Build 0)  -->
<!DOCTYPE svg PUBLIC "-//W3C//DTD SVG 1.1//EN" "http://www.w3.org/Graphics/SVG/1.1/DTD/svg11.dtd">
<svg version="1.1" id="Layer_1" xmlns="http://www.w3.org/2000/svg" xmlns:xlink="http://www.w3.org/1999/xlink" x="0px" y="0px"
	 width="23px" height="50px" viewBox="0 0 23 50" enable-background="new 0 0 23 50" xml:space="preserve">
<path id="twitter-icon_1_" fill="#FFFFFF" d="M21,5.8c-0.7,0.3-1.4,0.6-2.2,0.6c0.8-0.5,1.4-1.3,1.7-2.1c-0.8,0.5-1.6,0.8-2.5,1
	C17.3,4.5,16.3,4,15.1,4c-2.5,0-4.4,2.4-3.8,4.8c-3.2-0.2-6.1-1.7-8-4c-1.1,1.7-0.6,4,1.1,5.2c-0.6,0-1.3-0.2-1.7-0.5
	C2.6,11.3,4,13,5.8,13.4c-0.6,0.2-1.2,0.2-1.7,0.1C4.6,15,6,16.1,7.8,16.1c-1.7,1.3-3.7,1.8-5.8,1.6c1.7,1.1,3.8,1.7,5.9,1.7
	c7.2,0,11.3-6.1,11.1-11.6C19.8,7.3,20.4,6.6,21,5.8z"/>
<path id="twitter-icon_2_" fill="#0D6BA8" d="M21,32.8c-0.7,0.3-1.4,0.6-2.2,0.6c0.8-0.5,1.4-1.3,1.7-2.1c-0.8,0.5-1.6,0.8-2.5,1
	c-0.7-0.8-1.7-1.3-2.9-1.3c-2.5,0-4.4,2.4-3.8,4.8c-3.2-0.2-6.1-1.7-8-4c-1.1,1.7-0.6,4,1.1,5.2c-0.6,0-1.3-0.2-1.7-0.5
	C2.6,38.3,4,40,5.8,40.4c-0.6,0.2-1.2,0.2-1.7,0.1C4.6,42,6,43.1,7.8,43.1c-1.7,1.3-3.7,1.8-5.8,1.6c1.7,1.1,3.8,1.7,5.9,1.7
	c7.2,0,11.3-6.1,11.1-11.6C19.8,34.3,20.4,33.6,21,32.8z"/>
</svg>
