<?xml version="1.0" encoding="utf-8"?>
<!-- Generator: Adobe Illustrator 18.0.0, SVG Export Plug-In . SVG Version: 6.00 Build 0)  -->
<!DOCTYPE svg PUBLIC "-//W3C//DTD SVG 1.1//EN" "http://www.w3.org/Graphics/SVG/1.1/DTD/svg11.dtd">
<svg version="1.1" id="Layer_1" xmlns="http://www.w3.org/2000/svg" xmlns:xlink="http://www.w3.org/1999/xlink" x="0px" y="0px"
	 width="30px" height="80px" viewBox="0 0 30 80" enable-background="new 0 0 30 80" xml:space="preserve">
<g id="google-plus-icon">
	<path fill="#0F80C4" d="M26.5,8.1h-3.2v3.2h-1.6V8.1h-3.2V6.5h3.2V3.3h1.6v3.2h3.2V8.1z M17.5,21.3c0,2.4-2.2,5.3-7.7,5.3
		c-4,0-7.3-1.7-7.3-4.6c0-2.2,1.4-5.2,8.1-5.2c-1-0.8-1.2-1.9-0.6-3.1c-3.9,0-5.9-2.3-5.9-5.2S6.2,3,10.5,3c1.1,0,6.9,0,6.9,0
		l-1.5,1.6h-1.8c1.3,0.7,2,2.2,2,3.9c0,1.5-0.8,2.8-2,3.7c-2.1,1.6-1.6,2.6,0.6,4.2C16.8,18,17.5,19.3,17.5,21.3z M13.2,8.6
		c-0.3-2.4-1.9-4.4-3.8-4.5c-1.8,0-3.1,1.8-2.8,4.3c0.3,2.4,2.1,4.1,3.9,4.2C12.5,12.6,13.5,11.1,13.2,8.6z M15.1,21.5
		c0-2-1.8-3.9-4.9-3.9c-2.8,0-5.1,1.7-5.1,3.8s2,3.9,4.8,3.9C13.4,25.2,15.1,23.6,15.1,21.5z"/>
</g>
<g id="google-plus-icon_1_">
	<path fill="#0D6BA8" d="M26.5,58.1h-3.2v3.2h-1.6v-3.2h-3.2v-1.6h3.2v-3.2h1.6v3.2h3.2V58.1z M17.5,71.3c0,2.4-2.2,5.3-7.7,5.3
		c-4,0-7.3-1.7-7.3-4.6c0-2.2,1.4-5.2,8.1-5.2c-1-0.8-1.2-1.9-0.6-3.1c-3.9,0-5.9-2.3-5.9-5.2c0-2.9,2.1-5.5,6.4-5.5
		c1.1,0,6.9,0,6.9,0l-1.5,1.6h-1.8c1.3,0.7,2,2.2,2,3.9c0,1.5-0.8,2.8-2,3.7c-2.1,1.6-1.6,2.6,0.6,4.2C16.8,68,17.5,69.3,17.5,71.3z
		 M13.2,58.6c-0.3-2.4-1.9-4.4-3.8-4.5c-1.8,0-3.1,1.8-2.8,4.3c0.3,2.4,2.1,4.1,3.9,4.2C12.5,62.6,13.5,61.1,13.2,58.6z M15.1,71.5
		c0-2-1.8-3.9-4.9-3.9c-2.8,0-5.1,1.7-5.1,3.8s2,3.9,4.8,3.9C13.4,75.2,15.1,73.6,15.1,71.5z"/>
</g>
</svg>
