<?xml version="1.0" encoding="utf-8"?>
<!-- Generator: Adobe Illustrator 18.0.0, SVG Export Plug-In . SVG Version: 6.00 Build 0)  -->
<!DOCTYPE svg PUBLIC "-//W3C//DTD SVG 1.1//EN" "http://www.w3.org/Graphics/SVG/1.1/DTD/svg11.dtd">
<svg version="1.1" id="Layer_1" xmlns="http://www.w3.org/2000/svg" xmlns:xlink="http://www.w3.org/1999/xlink" x="0px" y="0px"
	 width="178px" height="128px" viewBox="0 0 178 128" enable-background="new 0 0 178 128" xml:space="preserve">
<g>
	<g>
		<polygon fill="#9FC8E1" points="89,128 0,77.5 0,51.4 89,101.9 		"/>
		<polygon fill="#7CB3D6" points="178,77.5 89,128 89,101.9 178,51.4 		"/>
	</g>
	<polygon fill="#FFFFFF" points="0,51.4 89,0.7 178,51.4 89,101.9 	"/>
	<path fill="#C9DEEC" d="M74.9,78.9c-2.3,0-4.3-0.5-5.9-1.4L45.5,64c-2-1.1-3.1-2.8-3.3-4.8c-0.2-1.9,0.7-3.8,2.3-5.3l-7-4
		c-1.5-0.9-2.4-2.3-2.4-3.9c0-1.7,1-3.2,2.7-4.2l13.3-7.7c1.2-0.7,2.6-1,4.1-1c1.3,0,2.5,0.3,3.5,0.9l10,5.8l24.3-14
		c2-1.2,4.6-1.8,7.2-1.8c2.3,0,4.3,0.5,5.9,1.4l23.5,13.6c2.1,1.2,3.3,3.1,3.3,5.3c0,2.3-1.5,4.5-4,6l-3.3,1.9l5.7,3.3
		c1.5,0.9,2.4,2.3,2.4,3.9c0,1.7-1,3.2-2.7,4.2L117.7,71c-1.2,0.7-2.6,1-4.1,1l0,0c-1.3,0-2.5-0.3-3.5-0.9l-8.9-5.1L82.1,77.1
		C80,78.3,77.5,78.9,74.9,78.9z"/>
	<linearGradient id="SVGID_1_" gradientUnits="userSpaceOnUse" x1="119.3129" y1="39.007" x2="68.913" y2="70.249">
		<stop  offset="0" style="stop-color:#379FD2"/>
		<stop  offset="1" style="stop-color:#1B538D"/>
	</linearGradient>
	<path fill="url(#SVGID_1_)" d="M129.7,58l-7.8-4.5l-18,10.4l7.8,4.5c1.1,0.6,3.1,0.6,4.4-0.2l13.3-7.7
		C130.7,59.8,130.9,58.6,129.7,58z M128.1,41.6L104.6,28c-2.5-1.5-7-1.3-9.9,0.4L64.8,45.7L78,53.3c1.1,0.6,1,1.8-0.3,2.5l-13.3,7.7
		c-1.3,0.8-3.3,0.8-4.4,0.2l-13.2-7.6c-2,1.6-1.9,3.8,0.3,5l23.5,13.6c2.5,1.5,7,1.3,9.9-0.4l46.9-27.1
		C130.3,45.6,130.6,43,128.1,41.6z"/>
	<linearGradient id="SVGID_2_" gradientUnits="userSpaceOnUse" x1="67.9495" y1="35.7637" x2="52.918" y2="55.2162">
		<stop  offset="0" style="stop-color:#379FD2"/>
		<stop  offset="1" style="stop-color:#1B538D"/>
	</linearGradient>
	<path fill="url(#SVGID_2_)" d="M64.4,58.9c-1.3,0.8-3.3,0.8-4.4,0.2l-20.8-12c-1.1-0.6-1-1.8,0.3-2.5l13.3-7.7
		c1.3-0.8,3.3-0.8,4.4-0.2l20.8,12c1.1,0.6,1,1.8-0.3,2.5L64.4,58.9z"/>
</g>
</svg>
