<?xml version="1.0" encoding="utf-8"?>
<!-- Generator: Adobe Illustrator 18.0.0, SVG Export Plug-In . SVG Version: 6.00 Build 0)  -->
<!DOCTYPE svg PUBLIC "-//W3C//DTD SVG 1.1//EN" "http://www.w3.org/Graphics/SVG/1.1/DTD/svg11.dtd">
<svg version="1.1" id="Layer_1" xmlns="http://www.w3.org/2000/svg" xmlns:xlink="http://www.w3.org/1999/xlink" x="0px" y="0px"
	 width="178px" height="128px" viewBox="0 0 178 128" enable-background="new 0 0 178 128" xml:space="preserve">
<g>
	<g>
		<polygon fill="#9FC8E1" points="89,128 0,77.5 0,51.4 89,101.9 		"/>
		<polygon fill="#7CB3D6" points="178,77.5 89,128 89,101.9 178,51.4 		"/>
	</g>
	<polygon fill="#FFFFFF" points="0,51.4 89,0.7 178,51.4 89,101.9 	"/>
	<path fill="#C9DEEC" d="M95.1,67.9c-8.7,0-17.5-2.2-24.2-6.1c-0.5-0.3-1-0.6-1.5-0.9l2.9,4.3l-29.8-8.7l13.4-15.3l3.4,5l0,0
		c-0.2-5.3,2.9-10.3,8.7-13.6c5-2.9,11.7-4.4,19-4.4c8.7,0,17.5,2.2,24.2,6.1c6.5,3.8,10.5,8.8,11.4,14.1c0.6,4-0.4,7.2-3.2,10.9
		c0,0-2.3,2.6-4.4,4c-2.3,1.6-7.3,3-7.3,3C103.9,67.4,99.6,67.9,95.1,67.9z"/>
	<linearGradient id="SVGID_1_" gradientUnits="userSpaceOnUse" x1="103.2956" y1="39.5407" x2="61.2956" y2="67.7907">
		<stop  offset="0" style="stop-color:#379FD2"/>
		<stop  offset="1" style="stop-color:#1B538D"/>
	</linearGradient>
	<path fill="url(#SVGID_1_)" d="M69.9,35.8c-6.1,3.5-8,8.6-6.1,13.5l-6.3,1l-2-2.9l-6.3,7.2l14,4.1l-2-2.9l6.3-1
		c1.4,1.4,3.1,2.6,5.2,3.8c9.8,5.6,23.7,7.1,33.9,4l-10.8-6.2l-5.1,3l-2.6-13l22.4,1.5l-5.1,3l10.8,6.2c5.3-5.9,2.9-13.9-6.9-19.6
		C97.7,30.7,80,30,69.9,35.8z"/>
</g>
</svg>
