<?xml version="1.0" encoding="utf-8"?>
<!-- Generator: Adobe Illustrator 18.0.0, SVG Export Plug-In . SVG Version: 6.00 Build 0)  -->
<!DOCTYPE svg PUBLIC "-//W3C//DTD SVG 1.1//EN" "http://www.w3.org/Graphics/SVG/1.1/DTD/svg11.dtd">
<svg version="1.1" id="Layer_1" xmlns="http://www.w3.org/2000/svg" xmlns:xlink="http://www.w3.org/1999/xlink" x="0px" y="0px"
	 width="178px" height="128px" viewBox="0 0 178 128" enable-background="new 0 0 178 128" xml:space="preserve">
<g>
	<g>
		<polygon fill="#9FC8E1" points="89,128 0,77.5 0,51.4 89,101.9 		"/>
		<polygon fill="#7CB3D6" points="178,77.5 89,128 89,101.9 178,51.4 		"/>
	</g>
	<polygon fill="#FFFFFF" points="0,51.4 89,0.7 178,51.4 89,101.9 	"/>
	<path fill="#C9DEEC" d="M113.6,32.7c-4.4-2.5-10.2-4-15.8-4c-4.9,0-9.3,1-12.6,3c-4,2.3-6.3,5.9-6.3,9.7c0,2.2,0.7,4.3,2.1,6.3l0,0
		C77.8,46,73.9,45,70,45c-3.4,0-6.4,0.7-8.8,2.1c-3,1.8-4.8,4.5-4.8,7.6c0,3.4,2.2,6.6,5.9,8.7c3.1,1.8,6.9,2.8,10.9,2.8
		c3.4,0,6.4-0.7,8.8-2.1c0.1,0,0.2-0.1,0.2-0.1l9.6,2.6c0.7,1.5,2,2.8,3.7,3.8c2.1,1.2,4.8,1.9,7.4,1.9c2.4,0,4.5-0.5,6.2-1.5
		c2.4-1.4,3.7-3.6,3.7-6c0-2.7-1.6-5.1-4.4-6.7c-0.4-0.2-0.8-0.4-1.2-0.6l0-0.5c3-0.4,5.7-1.3,8-2.6c4-2.3,6.3-5.9,6.3-9.7
		C121.6,39.9,118.7,35.6,113.6,32.7z M108.8,47.8c-4.1,2.4-11.3,2.1-16.1-0.7c-4.8-2.7-5.3-6.9-1.2-9.3c4.1-2.4,11.3-2.1,16.1,0.7
		C112.4,41.3,112.9,45.4,108.8,47.8z M67.4,57.9c-2.6-1.5-2.9-3.8-0.6-5.1c2.3-1.3,6.3-1.2,8.9,0.4c2.6,1.5,2.9,3.8,0.6,5.1
		C74.1,59.6,70.1,59.5,67.4,57.9z"/>
	<linearGradient id="SVGID_1_" gradientUnits="userSpaceOnUse" x1="101.6491" y1="34.4503" x2="84.0907" y2="60.2558">
		<stop  offset="0" style="stop-color:#379FD2"/>
		<stop  offset="1" style="stop-color:#1B538D"/>
	</linearGradient>
	<path fill="url(#SVGID_1_)" d="M111.4,36.4c-7.2-4.1-18-4.6-24.2-1c-6.2,3.6-5.4,9.8,1.7,14c3.3,1.9,7.4,3,11.5,3.3l0.2,7.5
		c-1.4,0-2.7,0.4-3.7,0.9c-0.3,0.2-0.6,0.4-0.8,0.6l-14-3.7c1-2.1-0.2-4.7-3.4-6.6c-4.6-2.6-11.5-2.9-15.5-0.6
		c-4,2.3-3.5,6.3,1.1,8.9c4.6,2.6,11.5,2.9,15.5,0.6c0.6-0.3,1.1-0.7,1.4-1.1L95.5,63c-0.3,1.2,0.5,2.5,2.2,3.5
		c2.8,1.6,7,1.8,9.4,0.4c2.4-1.4,2.1-3.8-0.7-5.4c-1-0.6-2.1-0.9-3.2-1.1l-0.2-7.6c3.8,0,7.5-0.8,10.2-2.4
		C119.4,46.8,118.6,40.5,111.4,36.4z M76.4,58.3c-2.3,1.3-6.3,1.2-8.9-0.4c-2.6-1.5-2.9-3.8-0.6-5.1c2.3-1.3,6.3-1.2,8.9,0.4
		C78.4,54.7,78.6,57,76.4,58.3z M108.8,47.8c-4.1,2.4-11.3,2.1-16.1-0.7c-4.8-2.7-5.3-6.9-1.2-9.3c4.1-2.4,11.3-2.1,16.1,0.7
		C112.4,41.3,112.9,45.4,108.8,47.8z"/>
</g>
</svg>
