<?xml version="1.0" encoding="utf-8"?>
<!-- Generator: Adobe Illustrator 18.0.0, SVG Export Plug-In . SVG Version: 6.00 Build 0)  -->
<!DOCTYPE svg PUBLIC "-//W3C//DTD SVG 1.1//EN" "http://www.w3.org/Graphics/SVG/1.1/DTD/svg11.dtd">
<svg version="1.1" id="Layer_1" xmlns="http://www.w3.org/2000/svg" xmlns:xlink="http://www.w3.org/1999/xlink" x="0px" y="0px"
	 width="17px" height="17px" viewBox="0 0 17 17" enable-background="new 0 0 17 17" xml:space="preserve">
<polygon fill="#4B5256" points="42.9,5.3 42.9,12.6 48.8,9 "/>
<path fill="#4B5256" d="M44.9,17.4c-4.6,0-8.3-3.8-8.3-8.4c0-4.6,3.7-8.4,8.3-8.4s8.3,3.8,8.3,8.4C53.2,13.6,49.5,17.4,44.9,17.4z
	 M44.9,1.5c-4,0-7.3,3.3-7.3,7.4s3.3,7.4,7.3,7.4s7.3-3.3,7.3-7.4S48.9,1.5,44.9,1.5z"/>
<path fill="#4B5256" d="M6.5,12.1l5.9-3.6L6.5,4.9V12.1z M8.5,0.1c-4.6,0-8.3,3.8-8.3,8.4c0,4.6,3.7,8.4,8.3,8.4s8.3-3.8,8.3-8.4
	C16.8,3.9,13.1,0.1,8.5,0.1z M8.5,15.9c-4,0-7.3-3.3-7.3-7.4s3.3-7.4,7.3-7.4s7.3,3.3,7.3,7.4S12.5,15.9,8.5,15.9z"/>
</svg>
