<?xml version="1.0" encoding="utf-8"?>
<!-- Generator: Adobe Illustrator 18.0.0, SVG Export Plug-In . SVG Version: 6.00 Build 0)  -->
<!DOCTYPE svg PUBLIC "-//W3C//DTD SVG 1.1//EN" "http://www.w3.org/Graphics/SVG/1.1/DTD/svg11.dtd">
<svg version="1.1" id="Layer_1" xmlns="http://www.w3.org/2000/svg" xmlns:xlink="http://www.w3.org/1999/xlink" x="0px" y="0px"
	 width="19px" height="20px" viewBox="0 0 19 20" enable-background="new 0 0 19 20" xml:space="preserve">
<path fill="#0C70AC" d="M16.2,1.4H2.8C1.3,1.4,0,2.7,0,4.2v5.4c0,1.5,1.3,2.8,2.8,2.8h1.4v-0.7h0V6.4h10.5l0,5.9h0l0,0.1h1.4
	c1.5,0,2.8-1.3,2.8-2.8V4.2C19,2.7,17.7,1.4,16.2,1.4z M14.2,4.4H3.4V3h10.7V4.4z M16.6,4.4h-1.4V3h1.4V4.4z M5,18.6h6.9l2.2-1.8
	V7.4H5V18.6z M6.8,10.5c0.4-0.4,0.8-1,1.5-0.2c0.7,0.8,0.3,1.1,0,1.5c-0.3,0.3,0.3,0.9,0.9,1.5c0.6,0.6,1.3,1.1,1.5,0.9
	c0.4-0.4,0.6-0.7,1.5,0c0.8,0.7,0.2,1.1-0.2,1.5c-0.4,0.4-2,0-3.6-1.5C6.7,12.6,6.3,11,6.8,10.5z"/>
</svg>
