<?xml version="1.0" encoding="utf-8"?>
<!-- Generator: Adobe Illustrator 18.0.0, SVG Export Plug-In . SVG Version: 6.00 Build 0)  -->
<!DOCTYPE svg PUBLIC "-//W3C//DTD SVG 1.1//EN" "http://www.w3.org/Graphics/SVG/1.1/DTD/svg11.dtd">
<svg version="1.1" id="Layer_1" xmlns="http://www.w3.org/2000/svg" xmlns:xlink="http://www.w3.org/1999/xlink" x="0px" y="0px"
	 width="19px" height="20px" viewBox="0 0 19 20" enable-background="new 0 0 19 20" xml:space="preserve">
<g>
	<path fill="#0C70AC" d="M15.4,15.9c-1.3-2.1-2.5-1.9-3.5-1.6c-0.2,0.1-0.3,0.2-0.5,0.3c-1,0.5-2.3-1.7-3.3-3.8
		c-1-2.1-1.9-4.5-0.9-5c0.2-0.1,0.5-0.2,0.7-0.3C8.7,4.9,9.4,4,8.7,1.8c-0.6-1.7-1.5-2-2.4-1.8C6.1,0.1,6,0.2,5.8,0.2l0,0l0,0
		C5.6,0.3,5.4,0.4,5.2,0.5C5,0.6,4.7,0.7,4.4,0.9c-1.6,0.8-2,5.5,0.8,11.3c2.8,5.8,6.7,8.4,8.3,7.7c0.5-0.2,1.1-0.5,1.5-0.8
		C15.6,18.5,16.3,17.4,15.4,15.9z"/>
</g>
</svg>
