<?xml version="1.0" encoding="utf-8"?>
<!-- Generator: Adobe Illustrator 18.0.0, SVG Export Plug-In . SVG Version: 6.00 Build 0)  -->
<!DOCTYPE svg PUBLIC "-//W3C//DTD SVG 1.1//EN" "http://www.w3.org/Graphics/SVG/1.1/DTD/svg11.dtd">
<svg version="1.1" id="Layer_1" xmlns="http://www.w3.org/2000/svg" xmlns:xlink="http://www.w3.org/1999/xlink" x="0px" y="0px"
	 width="19px" height="40px" viewBox="0 0 19 40" enable-background="new 0 0 19 40" xml:space="preserve">
<path fill="#576369" d="M12.8,2.1C10-0.7,5.4-0.7,2.6,2.1c-2.8,2.8-2.9,7.4-0.1,10.2s7.4,2.9,10.2,0.1C15.5,9.6,15.6,5,12.8,2.1z
	 M11.2,10.8c-2,2-5.2,1.9-7.1,0c-2-2-1.9-5.2,0-7.1c2-2,5.2-1.9,7.1,0C13.1,5.6,13.2,8.8,11.2,10.8z M18.7,15.6l-4.2-3.8
	c-0.1-0.1-0.2-0.1-0.3-0.2c-0.3,0.4-0.6,0.8-1,1.2c-0.3,0.4-0.7,0.7-1.1,1c0,0.1,0.1,0.2,0.1,0.2l3.7,4.3c0.4,0.5,1.1,0.5,1.5,0.1
	l1.3-1.3C19.1,16.7,19.1,16,18.7,15.6z"/>
<path fill="#FFFFFF" d="M12.8,23.5c-2.8-2.8-7.4-2.9-10.2-0.1c-2.8,2.8-2.9,7.4-0.1,10.2c2.8,2.8,7.4,2.9,10.2,0.1
	C15.6,30.9,15.6,26.3,12.8,23.5z M11.2,32.1c-2,2-5.2,1.9-7.1,0c-2-2-1.9-5.2,0-7.1c2-2,5.2-1.9,7.1,0
	C13.1,26.9,13.2,30.2,11.2,32.1z M18.7,36.9l-4.2-3.8c-0.1,0-0.2-0.1-0.3-0.1c-0.3,0.4-0.6,0.8-1,1.2c-0.3,0.3-0.7,0.6-1.1,0.9
	c0,0.1,0.1,0.2,0.1,0.2l3.7,4.3c0.4,0.5,1.1,0.5,1.5,0.1l1.3-1.3C19.1,38,19.1,37.3,18.7,36.9z"/>
</svg>
