<?xml version="1.0" encoding="utf-8"?>
<!-- Generator: Adobe Illustrator 18.1.1, SVG Export Plug-In . SVG Version: 6.00 Build 0)  -->
<!DOCTYPE svg PUBLIC "-//W3C//DTD SVG 1.1//EN" "http://www.w3.org/Graphics/SVG/1.1/DTD/svg11.dtd">
<svg version="1.1" id="Layer_1" xmlns="http://www.w3.org/2000/svg" xmlns:xlink="http://www.w3.org/1999/xlink" x="0px" y="0px"
	 width="84px" height="84px" viewBox="0 0 84 84" enable-background="new 0 0 84 84" xml:space="preserve">
<g>
	<path fill="#1280C4" d="M40.4,59.2h-2.7v-18c0-1.4-1.1-2.5-2.4-2.5h-6.7c-1.4,0-2.4,1.1-2.4,2.5v18h-2.7c-0.6,0-1.2,0.4-1.4,0.9
		c-0.3,0.6-0.2,1.2,0.2,1.7l7.2,8.5c0.6,0.7,1.5,1.1,2.5,1.1c1,0,1.9-0.4,2.5-1.1l7.2-8.5c0.4-0.5,0.5-1.1,0.2-1.7
		C41.6,59.6,41,59.2,40.4,59.2L40.4,59.2z M40.4,59.2"/>
	<path fill="#1280C4" d="M54.6,40c-0.6-0.7-1.5-1.1-2.5-1.1c-1,0-1.9,0.4-2.5,1.1l-7.2,8.5c-0.4,0.5-0.5,1.1-0.2,1.7
		c0.3,0.6,0.8,0.9,1.4,0.9h2.7v18c0,1.4,1.1,2.5,2.4,2.5h6.7c1.4,0,2.4-1.1,2.4-2.5v-18h2.7c0.6,0,1.2-0.4,1.4-0.9
		c0.3-0.6,0.2-1.2-0.2-1.7L54.6,40z M54.6,40"/>
	<path fill="#1280C4" d="M62.7,23.1c-0.5,0-0.9-0.3-1.2-0.7c-2.8-3.8-7.3-6.2-12.1-6.2c-0.3,0-0.6,0-0.9,0c-0.4,0-0.8-0.1-1.1-0.3
		c-2.9-2.2-6.5-3.4-10.2-3.4c-6.7,0-12.6,3.9-15.3,9.7c-0.2,0.5-0.7,0.9-1.3,1c-7.3,1-13,7.3-13,14.9c0,8.3,6.8,15.1,15.1,15.1h0.7
		V41.3c0-3,2.4-5.4,5.4-5.4h6.7c3,0,5.4,2.4,5.4,5.4V46l6.8-8c1.2-1.4,2.9-2.2,4.7-2.2c1.8,0,3.5,0.8,4.7,2.2l7.2,8.5
		c1.1,1.3,1.4,3.2,0.7,4.8c-0.3,0.7-0.8,1.2-1.3,1.7c7.4-0.9,13.2-7.3,13.2-15C76.5,30.2,70.4,23.7,62.7,23.1L62.7,23.1z M62.7,23.1
		"/>
</g>
</svg>
