<?xml version="1.0" encoding="utf-8"?>
<!-- Generator: Adobe Illustrator 18.1.1, SVG Export Plug-In . SVG Version: 6.00 Build 0)  -->
<!DOCTYPE svg PUBLIC "-//W3C//DTD SVG 1.1//EN" "http://www.w3.org/Graphics/SVG/1.1/DTD/svg11.dtd">
<svg version="1.1" id="Layer_1" xmlns="http://www.w3.org/2000/svg" xmlns:xlink="http://www.w3.org/1999/xlink" x="0px" y="0px"
	 width="84px" height="84px" viewBox="0 0 84 84" enable-background="new 0 0 84 84" xml:space="preserve">
<g>
	<path fill="#1280C4" d="M11.3,32.5c0.4,1.3,0.9,2.5,1.5,3.6L11,38.5c-0.6,0.8-0.5,1.9,0.1,2.5l3.2,3.2c0.7,0.7,1.8,0.7,2.5,0.1
		l2.3-1.8c1.2,0.7,2.5,1.2,3.8,1.6l0.3,3c0.1,1,0.9,1.7,1.9,1.7h4.5c1,0,1.8-0.7,1.9-1.7l0.3-2.9c1.4-0.4,2.8-0.9,4.1-1.6l2.2,1.8
		c0.8,0.6,1.9,0.5,2.5-0.1l3.2-3.2c0.7-0.7,0.7-1.8,0.1-2.5l-1.7-2.2c0.7-1.3,1.3-2.6,1.7-4l2.7-0.3c1-0.1,1.7-0.9,1.7-1.9v-4.5
		c0-1-0.7-1.8-1.7-1.9l-2.7-0.3c-0.4-1.4-0.9-2.7-1.6-4l1.6-2.1c0.6-0.8,0.5-1.9-0.1-2.5l-3.2-3.2c-0.7-0.7-1.8-0.7-2.5-0.1l-2,1.6
		c-1.3-0.8-2.7-1.3-4.2-1.7l-0.3-2.6C31.8,7.8,30.9,7,30,7h-4.5c-1,0-1.8,0.7-1.9,1.7l-0.3,2.6c-1.5,0.4-2.9,1-4.3,1.8l-2.1-1.7
		c-0.8-0.6-1.9-0.5-2.5,0.1l-3.2,3.2c-0.7,0.7-0.7,1.8-0.1,2.5l1.7,2.2c-0.7,1.3-1.2,2.6-1.6,4l-2.8,0.3c-1,0.1-1.7,0.9-1.7,1.9v4.5
		c0,1,0.7,1.8,1.7,1.9L11.3,32.5z M27.7,20.3c4.1,0,7.5,3.4,7.5,7.5c0,4.1-3.4,7.5-7.5,7.5s-7.5-3.4-7.5-7.5
		C20.2,23.7,23.6,20.3,27.7,20.3L27.7,20.3z M27.7,20.3"/>
	<path fill="#1280C4" d="M72.4,33.6l-2.4-2c-0.7-0.6-1.8-0.6-2.5,0.1l-1.3,1.2c-1.1-0.5-2.3-0.9-3.5-1.1L62.3,30
		c-0.2-0.9-1.1-1.6-2-1.5l-3.1,0.3c-1,0.1-1.7,0.9-1.7,1.8l-0.1,1.8c-1.2,0.4-2.3,1-3.4,1.8l-1.6-1c-0.8-0.5-1.9-0.4-2.5,0.4l-2,2.4
		c-0.6,0.7-0.6,1.8,0.1,2.5l1.4,1.5c-0.5,1.1-0.8,2.2-1,3.4l-2,0.4c-0.9,0.2-1.6,1.1-1.5,2l0.3,3.1c0.1,1,0.9,1.7,1.8,1.7l2.1,0.1
		c0.4,1,0.9,2,1.5,2.9l-1.2,1.8c-0.5,0.8-0.4,1.9,0.4,2.5l2.4,2c0.7,0.6,1.8,0.6,2.5-0.1l1.6-1.5c1,0.5,2.1,0.8,3.2,1l0.4,2.1
		c0.2,0.9,1.1,1.6,2,1.5l3.1-0.3c1-0.1,1.7-0.9,1.7-1.8l0.1-2.1c1.1-0.4,2.2-0.9,3.2-1.6l1.7,1.1c0.8,0.5,1.9,0.4,2.5-0.4l2-2.4
		c0.6-0.7,0.6-1.8-0.1-2.5l-1.4-1.5c0.5-1.1,0.9-2.2,1.1-3.4l1.9-0.4c0.9-0.2,1.6-1.1,1.5-2L77,42.6c-0.1-1-0.9-1.7-1.8-1.7
		l-1.9-0.1c-0.4-1.1-0.9-2.2-1.6-3.1l1-1.6C73.3,35.3,73.1,34.3,72.4,33.6L72.4,33.6z M60.7,51.6c-3.4,0.3-6.3-2.2-6.6-5.6
		c-0.3-3.4,2.2-6.3,5.6-6.6c3.4-0.3,6.3,2.2,6.6,5.6C66.5,48.4,64,51.4,60.7,51.6L60.7,51.6z M60.7,51.6"/>
	<path fill="#1280C4" d="M22.2,60c-1,0.1-1.7,0.9-1.7,1.9l0,1.9c0,1,0.7,1.8,1.7,1.9l1.4,0.2c0.2,0.9,0.6,1.7,1,2.4l-0.9,1.1
		c-0.6,0.7-0.6,1.8,0.1,2.5l1.3,1.4c0.7,0.7,1.7,0.8,2.5,0.2l1.1-0.9c0.8,0.5,1.6,0.8,2.5,1.1l0.2,1.5c0.1,1,0.9,1.7,1.9,1.7l1.9,0
		c1,0,1.8-0.7,1.9-1.7l0.2-1.4c1-0.2,1.9-0.6,2.7-1.1l1.1,0.9c0.7,0.6,1.8,0.6,2.5-0.1l1.4-1.3c0.7-0.7,0.8-1.7,0.2-2.5l-0.8-1.1
		c0.5-0.8,0.9-1.7,1.2-2.7l1.3-0.1c1-0.1,1.7-0.9,1.7-1.9l0-1.9c0-1-0.7-1.8-1.7-1.9L45.6,60c-0.2-0.9-0.6-1.8-1-2.7l0.8-0.9
		c0.6-0.7,0.6-1.8-0.1-2.5l-1.3-1.4c-0.7-0.7-1.7-0.8-2.5-0.2l-0.9,0.7c-0.9-0.5-1.8-0.9-2.8-1.2l-0.1-1.2c-0.1-1-0.9-1.7-1.9-1.7
		l-1.9,0c-1,0-1.8,0.7-1.9,1.7l-0.2,1.2c-1,0.3-2,0.7-2.9,1.2l-0.9-0.8c-0.7-0.6-1.8-0.6-2.5,0.1L24,53.7c-0.7,0.7-0.8,1.7-0.2,2.5
		l0.8,1c-0.5,0.8-0.8,1.7-1.1,2.7L22.2,60z M34.6,57.8c2.7,0,5,2.3,4.9,5c0,2.7-2.3,5-5,4.9c-2.7,0-5-2.3-4.9-5
		C29.6,60,31.8,57.8,34.6,57.8L34.6,57.8z M34.6,57.8"/>
</g>
</svg>
