<?xml version="1.0" encoding="utf-8"?>
<!-- Generator: Adobe Illustrator 18.1.1, SVG Export Plug-In . SVG Version: 6.00 Build 0)  -->
<!DOCTYPE svg PUBLIC "-//W3C//DTD SVG 1.1//EN" "http://www.w3.org/Graphics/SVG/1.1/DTD/svg11.dtd">
<svg version="1.1" id="Layer_1" xmlns="http://www.w3.org/2000/svg" xmlns:xlink="http://www.w3.org/1999/xlink" x="0px" y="0px"
	 width="84px" height="84px" viewBox="0 0 84 84" enable-background="new 0 0 84 84" xml:space="preserve">
<g>
	<path fill="#1280C4" d="M70.2,17.2H13.8c-4.9,0-8.9,4-8.9,8.9v31.9c0,4.9,4,8.9,8.9,8.9h56.4c4.9,0,8.9-4,8.9-8.9V26.1
		C79.1,21.2,75.1,17.2,70.2,17.2L70.2,17.2z M74.2,57.9c0,2.2-1.8,4-4,4H13.8c-2.2,0-4-1.8-4-4V36.6h64.4V57.9z M74.2,29.6l-64.4,0
		v-3.5c0-2.2,1.8-4,4-4h56.4c2.2,0,4,1.8,4,4V29.6z M74.2,29.6"/>
	<path fill="#1280C4" d="M15.9,57.4h13.4c0.5,0,0.9-0.4,0.9-0.9v-2.6c0-0.5-0.4-0.9-0.9-0.9H15.9c-0.5,0-0.9,0.4-0.9,0.9v2.6
		C15,57,15.4,57.4,15.9,57.4L15.9,57.4z M15.9,57.4"/>
	<path fill="#1280C4" d="M59.4,57.4h4c2.3,0,4.2-1.9,4.2-4.2v-4c0-2.3-1.9-4.2-4.2-4.2h-4c-2.3,0-4.2,1.9-4.2,4.2v4
		C55.3,55.5,57.1,57.4,59.4,57.4L59.4,57.4z M59.4,57.4"/>
</g>
</svg>
