<?xml version="1.0" encoding="utf-8"?>
<!-- Generator: Adobe Illustrator 18.1.1, SVG Export Plug-In . SVG Version: 6.00 Build 0)  -->
<!DOCTYPE svg PUBLIC "-//W3C//DTD SVG 1.1//EN" "http://www.w3.org/Graphics/SVG/1.1/DTD/svg11.dtd">
<svg version="1.1" id="Layer_1" xmlns="http://www.w3.org/2000/svg" xmlns:xlink="http://www.w3.org/1999/xlink" x="0px" y="0px"
	 width="84px" height="84px" viewBox="0 0 84 84" enable-background="new 0 0 84 84" xml:space="preserve">
<g>
	<path fill="#1280C4" d="M62.3,17.6c-0.5,0-1-0.3-1.3-0.7c-2.8-3.7-7.2-6-11.9-6c-0.3,0-0.6,0-0.9,0c-0.4,0-0.8-0.1-1.2-0.4
		c-2.9-2.2-6.3-3.3-10-3.3c-6.5,0-12.3,3.8-15,9.5c-0.3,0.5-0.8,0.9-1.4,1c-7.2,1-12.7,7.2-12.7,14.6c0,6,3.6,11.2,8.7,13.5
		c0-0.2,0-0.4,0-0.6c0-2.4,0.2-4.3,0.5-5.8c-2.1-1.6-3.4-4.2-3.4-7c0-4.9,4-9,9-9c0.3,0,0.5,0,0.7,0c1.4,0.1,2.7-0.8,3.1-2.2
		C28,16.4,32.2,13,37.2,13c2.8,0,5.5,1.1,7.5,3.1c0.7,0.7,1.7,1,2.6,0.8c0.6-0.1,1.2-0.2,1.8-0.2c3.5,0,6.5,1.9,8.1,5.1
		c0.5,1.1,1.7,1.8,2.9,1.6c0.3,0,0.6,0,0.9,0c4.9,0,9,4,9,9c0,2.8-1.3,5.4-3.4,7c0.3,1.6,0.5,3.5,0.5,5.8c0,0.2,0,0.4,0,0.6
		c5.1-2.3,8.7-7.5,8.7-13.5C75.8,24.6,69.9,18.2,62.3,17.6L62.3,17.6z M62.3,17.6"/>
	<path fill="#1280C4" d="M42,28.7c-14.6,13.5-22.2-0.5-22.2,16.4c0,23.6,17.1,30.8,22.2,31.7c5.1-0.9,22.2-8,22.2-31.7
		C64.2,28.2,56.6,42.2,42,28.7L42,28.7z M54.3,50.4L41.5,63.2c-0.7,0.7-1.6,1-2.5,1c-0.9,0-1.8-0.3-2.4-1l-6.8-6.8
		c-1.4-1.4-1.4-3.6,0-4.9c1.4-1.4,3.5-1.4,4.9,0l4.4,4.4l10.3-10.3c1.4-1.4,3.6-1.4,4.9,0C55.6,46.9,55.6,49.1,54.3,50.4L54.3,50.4z
		 M54.3,50.4"/>
</g>
</svg>
