<?xml version="1.0" encoding="utf-8"?>
<!-- Generator: Adobe Illustrator 18.1.1, SVG Export Plug-In . SVG Version: 6.00 Build 0)  -->
<!DOCTYPE svg PUBLIC "-//W3C//DTD SVG 1.1//EN" "http://www.w3.org/Graphics/SVG/1.1/DTD/svg11.dtd">
<svg version="1.1" id="Layer_1" xmlns="http://www.w3.org/2000/svg" xmlns:xlink="http://www.w3.org/1999/xlink" x="0px" y="0px"
	 width="84px" height="84px" viewBox="0 0 84 84" enable-background="new 0 0 84 84" xml:space="preserve">
<g>
	<path fill="#1280C4" d="M43.7,39c-2.2-1.1-4.4-1.6-4.4-3.4c0-1.6,0.9-2,2.4-2c1,0,1.9,0.4,2.8,1c0.6,0.5,1.4,0.9,2.2,0.9
		c1.6,0,2.8-1.5,2.8-3c0-1.1-0.6-2-1.6-2.8c-0.9-0.7-1.9-1.2-2.9-1.5v-1.4c0-1.4-1.1-2.5-2.5-2.5h-1.8c-1.4,0-2.5,1.1-2.5,2.5v1.5
		c-3.1,1.3-5,4.4-5,7.4c0,4.8,4.3,6.9,7.9,8.5c2.9,1.3,3.8,2.1,3.8,3.4c0,2-1.7,3.1-3.7,3.1c-1.1,0-2.2-0.1-3.4-1
		c-0.6-0.5-1.4-1-2.3-1c-1.6,0-2.8,1.5-2.8,3c0,1.1,0.5,1.9,1.5,2.7c1.1,0.8,2.7,1.6,4,1.9v1.1c0,1.4,1.1,2.5,2.5,2.5h1.8
		c1.4,0,2.5-1.1,2.5-2.5v-1.3c3.6-1.2,6.1-4.2,6.1-8.6C51.1,43.1,48.1,41.1,43.7,39L43.7,39z M43.7,39"/>
	<path fill="#1280C4" d="M42,8.5C23.5,8.5,8.5,23.5,8.5,42s15,33.5,33.5,33.5s33.5-15,33.5-33.5S60.5,8.5,42,8.5L42,8.5z M42,65.9
		c-13.2,0-23.9-10.7-23.9-23.9c0-13.2,10.7-23.9,23.9-23.9c13.2,0,23.9,10.7,23.9,23.9C65.9,55.2,55.2,65.9,42,65.9L42,65.9z
		 M42,65.9"/>
</g>
</svg>
