<?xml version="1.0" encoding="utf-8"?>
<!DOCTYPE svg PUBLIC "-//W3C//DTD SVG 1.1//EN" "http://www.w3.org/Graphics/SVG/1.1/DTD/svg11.dtd">
<svg version="1.1" id="Layer_2" xmlns="http://www.w3.org/2000/svg" xmlns:xlink="http://www.w3.org/1999/xlink" x="0px" y="0px"
	 width="141px" height="42px" viewBox="0 0 141 42" enable-background="new 0 0 141 42" xml:space="preserve">
<path fill="#FFFFFF" d="M13.1,12.7c3.2,0,5.7,1.2,7.6,3.7l0.4,0.5l3.4-2.1L24,14.2c-0.7-1.2-1.6-2.2-2.6-2.9c-1-0.7-2.3-1.4-3.7-1.9
	c-1.4-0.4-2.9-0.7-4.5-0.7c-2.4,0-4.7,0.6-6.8,1.6c-2,1.1-3.6,2.6-4.8,4.6c-1.1,1.9-1.8,4-1.8,6.3c0,3.4,1.2,6.3,3.7,8.7
	s5.6,3.6,9.2,3.6c2.4,0,4.6-0.4,6.5-1.4c1.9-1,3.4-2.3,4.6-4l0.4-0.6L21,25.3l-0.3,0.5c-1.9,2.4-4.5,3.7-7.6,3.7
	c-1.7,0-3.2-0.4-4.6-1.1c-1.3-0.7-2.4-1.8-3.2-3.1s-1.2-2.8-1.2-4.3c0-2.3,0.8-4.3,2.5-5.9C8.4,13.5,10.6,12.7,13.1,12.7z M38.6,8.7
	c-3.6,0-6.7,1.3-9.1,4c-2.1,2.4-3.2,5.3-3.2,8.5s1.2,6.2,3.4,8.6s5.3,3.7,8.9,3.7s6.6-1.2,8.9-3.7c2.3-2.4,3.4-5.4,3.4-8.6
	s-1.1-6.1-3.2-8.5C45.3,10,42.2,8.7,38.6,8.7z M45.6,25.4c-0.7,1.2-1.7,2.3-2.9,2.9c-1.2,0.7-2.6,1.1-4.1,1.1
	c-1.5,0-2.9-0.4-4.1-1.1c-1.2-0.7-2.2-1.7-2.9-3c-0.7-1.2-1.1-2.7-1.1-4.2c0-2.3,0.8-4.3,2.4-5.9c1.5-1.6,3.4-2.4,5.7-2.4
	c2.2,0,4.1,0.8,5.7,2.4c1.6,1.6,2.4,3.6,2.4,5.9C46.7,22.8,46.3,24.1,45.6,25.4z M99.7,10.1c-1.4-1-3-1.4-4.8-1.4
	c-1.8,0-3.4,0.4-4.9,1.2c-1,0.6-1.9,1.2-2.9,2.2V9.2H83V33h4.2v-8.9c0-2.9,0.1-4.8,0.4-5.9c0.4-1.5,1.2-2.9,2.5-4
	c1.2-1,2.7-1.6,4.3-1.6c1.4,0,2.4,0.3,3.2,1c0.8,0.7,1.4,1.6,1.7,2.9c0.1,0.6,0.3,1.9,0.3,5v11.5h4.3V20.8c0-3.1-0.3-5.4-1-7
	C102.2,12.2,101.1,11,99.7,10.1z M110.5,0c-0.8,0-1.5,0.3-2.1,1c-0.6,0.6-0.9,1.3-0.9,2.1s0.3,1.5,0.9,2.1c0.6,0.6,1.3,1,2.1,1
	c0.8,0,1.6-0.3,2.1-1c0.6-0.6,0.9-1.3,0.9-2.1s-0.3-1.6-0.9-2.1C112.2,0.3,111.4,0,110.5,0z M108.5,33h4.2V9.2h-4.2V33z M136.7,9.2
	v2.9c-0.9-1-1.9-1.7-2.9-2.3c-1.6-0.8-3.4-1.2-5.3-1.2c-3.4,0-6.2,1.2-8.6,3.6c-2.4,2.4-3.6,5.4-3.6,8.7c0,3.4,1.2,6.5,3.6,8.8
	c2.3,2.4,5.3,3.6,8.6,3.6c1.9,0,3.6-0.4,5.2-1.2c1.1-0.6,2.1-1.2,3.1-2.2v2.9h4.2V9.2H136.7z M135.9,25.5c-0.7,1.2-1.7,2.3-3,2.9
	c-1.2,0.7-2.7,1.1-4.1,1.1c-1.4,0-2.8-0.4-4-1.1c-1.2-0.7-2.3-1.8-3-3.1s-1.1-2.8-1.1-4.2c0-1.5,0.4-2.9,1.1-4.2
	c0.7-1.3,1.8-2.3,3-3.1c1.2-0.7,2.6-1.1,4.1-1.1c2.3,0,4.3,0.8,5.8,2.4c1.5,1.6,2.3,3.6,2.3,6C137,22.8,136.6,24.2,135.9,25.5z
	 M74.3,12.1L74.3,12.1c-1.1-1-2.2-1.8-3.2-2.3c-1.5-0.7-3.2-1.1-4.9-1.1c-2.1,0-4.2,0.6-6.1,1.6c-1.9,1.1-3.4,2.6-4.6,4.5
	c-1.1,1.9-1.6,4-1.6,6.1c0,2.2,0.5,4.2,1.6,6c1,1.8,2.6,3.3,4.4,4.4c1.8,1.1,4,1.6,6.1,1.6c1.8,0,3.6-0.4,5.3-1.2
	c1.1-0.5,2.1-1.2,3-2.1c-0.1,2.1-0.3,3.6-0.7,4.5c-0.5,1-1.4,1.8-2.6,2.5c-1.2,0.7-2.8,1-4.6,1h-0.4v4h0.4c0.1,0,0.1,0,0.1,0
	c2.7,0,5.1-0.6,7-1.8c2-1.2,3.4-2.9,4.2-5.1c0.6-1.5,0.9-4,0.9-7.1V9.2h-4.2L74.3,12.1L74.3,12.1z M72.2,26.7
	c-1.5,1.5-3.4,2.2-5.9,2.2c-2.4,0-4.4-0.7-5.9-2.2c-1.5-1.5-2.3-3.4-2.3-5.6c0-1.5,0.4-2.9,1.1-4.2c0.7-1.2,1.8-2.3,3.1-3
	c1.2-0.7,2.7-1.1,4.3-1.1c1.4,0,2.8,0.4,4,1.1c1.1,0.7,2.1,1.7,2.8,2.9c0.7,1.2,1,2.6,1,4.2C74.4,23.3,73.5,25.2,72.2,26.7z"/>
</svg>
