<?xml version="1.0" encoding="utf-8"?>
<!-- Generator: Adobe Illustrator 18.0.0, SVG Export Plug-In . SVG Version: 6.00 Build 0)  -->
<!DOCTYPE svg PUBLIC "-//W3C//DTD SVG 1.1//EN" "http://www.w3.org/Graphics/SVG/1.1/DTD/svg11.dtd">
<svg version="1.1" id="Layer_1" xmlns="http://www.w3.org/2000/svg" xmlns:xlink="http://www.w3.org/1999/xlink" x="0px" y="0px"
	 width="23px" height="50px" viewBox="0 0 23 50" enable-background="new 0 0 23 50" xml:space="preserve">
<path id="facebook-icon_3_" fill="#FFFFFF" d="M7.6,7.9H5.4v3.6h2.2v10.8H12V11.5h3.1l0.3-3.6H12c0,0,0-1.3,0-2.1s0.2-1.2,1-1.2
	c0.7,0,2.3,0,2.3,0V0.8c0,0-2.5,0-3,0c-3.2,0-4.7,1.4-4.7,4.1C7.6,7.4,7.6,7.9,7.6,7.9z"/>
<path id="facebook-icon_4_" fill="#0D6BA8" d="M7.6,34.9H5.4v3.6h2.2v10.8H12V38.5h3.1l0.3-3.6H12c0,0,0-1.3,0-2.1
	c0-0.8,0.2-1.2,1-1.2c0.7,0,2.3,0,2.3,0v-3.8c0,0-2.5,0-3,0c-3.2,0-4.7,1.4-4.7,4.1C7.6,34.4,7.6,34.9,7.6,34.9z"/>
</svg>
