<?xml version="1.0" encoding="utf-8"?>
<!-- Generator: Adobe Illustrator 18.0.0, SVG Export Plug-In . SVG Version: 6.00 Build 0)  -->
<!DOCTYPE svg PUBLIC "-//W3C//DTD SVG 1.1//EN" "http://www.w3.org/Graphics/SVG/1.1/DTD/svg11.dtd">
<svg version="1.1" id="Layer_1" xmlns="http://www.w3.org/2000/svg" xmlns:xlink="http://www.w3.org/1999/xlink" x="0px" y="0px"
	 width="23px" height="50px" viewBox="0 0 23 50" enable-background="new 0 0 23 50" xml:space="preserve">
<path id="linkedin-icon_1_" fill="#FFFFFF" d="M7.1,5.1c0,1.2-0.9,2.1-2.1,2.1c-1.1,0-2-1-2-2.1C3,3.9,3.9,3,5.1,3
	C6.2,3,7.1,3.9,7.1,5.1z M6.9,8.7H3.3V20h3.5L6.9,8.7L6.9,8.7z M12.5,8.7H9.1V20h3.4c0,0,0-4.2,0-6c0-1.6,0.7-2.5,2.1-2.5
	c1.3,0,1.9,0.9,1.9,2.5s0,6,0,6H20c0,0,0-4.1,0-7.2s-1.7-4.5-4.1-4.5s-3.4,1.9-3.4,1.9V8.7L12.5,8.7z"/>
<path id="linkedin-icon_2_" fill="#0D6BA8" d="M7.1,32.1c0,1.2-0.9,2.1-2.1,2.1c-1.1,0-2-1-2-2.1C3,30.9,3.9,30,5.1,30
	C6.2,30,7.1,30.9,7.1,32.1z M6.9,35.7H3.3V47h3.5L6.9,35.7L6.9,35.7z M12.5,35.7H9.1V47h3.4c0,0,0-4.2,0-6c0-1.6,0.7-2.5,2.1-2.5
	c1.3,0,1.9,0.9,1.9,2.5s0,6,0,6H20c0,0,0-4.1,0-7.2s-1.7-4.5-4.1-4.5s-3.4,1.9-3.4,1.9V35.7L12.5,35.7z"/>
</svg>
