<?xml version="1.0" encoding="utf-8"?>
<!-- Generator: Adobe Illustrator 18.0.0, SVG Export Plug-In . SVG Version: 6.00 Build 0)  -->
<!DOCTYPE svg PUBLIC "-//W3C//DTD SVG 1.1//EN" "http://www.w3.org/Graphics/SVG/1.1/DTD/svg11.dtd">
<svg version="1.1" id="Layer_1" xmlns="http://www.w3.org/2000/svg" xmlns:xlink="http://www.w3.org/1999/xlink" x="0px" y="0px"
	 width="23px" height="50px" viewBox="0 0 23 50" enable-background="new 0 0 23 50" xml:space="preserve">
<g id="google-plus-icon_1_">
	<path fill="#FFFFFF" d="M21.7,6.2H19v2.7h-1.3V6.2H15V4.9h2.7V2.2H19v2.7h2.7V6.2z M14.2,17.1c0,2-1.8,4.4-6.4,4.4
		c-3.3,0-6.1-1.4-6.1-3.8c0-1.8,1.2-4.3,6.8-4.3c-0.8-0.7-1-1.6-0.5-2.6c-3.3,0-4.9-1.9-4.9-4.3C3.1,4.2,4.8,2,8.4,2
		c0.9,0,5.7,0,5.7,0l-1.3,1.3h-1.4c1.1,0.6,1.7,1.8,1.7,3.3c0,1.3-0.7,2.3-1.7,3.1c-1.7,1.3-1.3,2.2,0.5,3.5
		C13.6,14.5,14.2,15.6,14.2,17.1z M10.6,6.7C10.3,4.7,9,3,7.4,2.9S4.9,4.4,5.1,6.5c0.3,2,1.8,3.4,3.3,3.4C10,10,10.9,8.7,10.6,6.7z
		 M12.2,17.4c0-1.7-1.5-3.3-4.1-3.3c-2.3,0-4.3,1.4-4.3,3.2s1.7,3.3,4,3.3C10.8,20.5,12.2,19.2,12.2,17.4z"/>
</g>
<g id="google-plus-icon_2_">
	<path fill="#0D6BA8" d="M21.7,33.2H19v2.7h-1.3v-2.7H15v-1.3h2.7v-2.7H19v2.7h2.7V33.2z M14.2,44.1c0,2-1.8,4.4-6.4,4.4
		c-3.3,0-6.1-1.4-6.1-3.8c0-1.8,1.2-4.3,6.8-4.3c-0.8-0.7-1-1.6-0.5-2.6c-3.3,0-4.9-1.9-4.9-4.3c0-2.3,1.7-4.5,5.3-4.5
		c0.9,0,5.7,0,5.7,0l-1.3,1.3h-1.4c1.1,0.6,1.7,1.8,1.7,3.3c0,1.3-0.7,2.3-1.7,3.1c-1.7,1.3-1.3,2.2,0.5,3.5
		C13.6,41.5,14.2,42.6,14.2,44.1z M10.6,33.7c-0.3-2-1.6-3.7-3.2-3.8s-2.5,1.5-2.3,3.6c0.3,2,1.8,3.4,3.3,3.4
		C10,37,10.9,35.7,10.6,33.7z M12.2,44.4c0-1.7-1.5-3.3-4.1-3.3c-2.3,0-4.3,1.4-4.3,3.2s1.7,3.3,4,3.3
		C10.8,47.5,12.2,46.2,12.2,44.4z"/>
</g>
</svg>
