<?xml version="1.0" encoding="utf-8"?>
<!-- Generator: Adobe Illustrator 18.0.0, SVG Export Plug-In . SVG Version: 6.00 Build 0)  -->
<!DOCTYPE svg PUBLIC "-//W3C//DTD SVG 1.1//EN" "http://www.w3.org/Graphics/SVG/1.1/DTD/svg11.dtd">
<svg version="1.1" id="Layer_1" xmlns="http://www.w3.org/2000/svg" xmlns:xlink="http://www.w3.org/1999/xlink" x="0px" y="0px"
	 width="22px" height="50px" viewBox="0 0 22 50" enable-background="new 0 0 22 50" xml:space="preserve">
<g>
	<path fill="#DCDCDC" d="M17.5,15.7c-0.9,0-1.7,0.3-2.4,0.8l-6.8-4.1c0-0.2,0.1-0.4,0.1-0.6s0-0.4-0.1-0.6L15.1,7
		c0.6,0.5,1.5,0.8,2.4,0.8c2.2,0,4-1.8,4-4S19.6,0,17.5,0s-4,1.8-4,4c0,0.2,0,0.4,0.1,0.6L6.7,8.7C6.1,8.2,5.2,7.9,4.4,7.9
		c-2.2,0-4,1.8-4,4s1.8,3.9,4,3.9c0.9,0,1.7-0.3,2.4-0.8l6.8,4.1c0,0.2-0.1,0.4-0.1,0.6c0,2.2,1.8,4,4,4s4-1.8,4-4
		S19.6,15.7,17.5,15.7z"/>
</g>
<g>
	<path fill="#FFFFFF" d="M17.5,42c-0.9,0-1.7,0.3-2.4,0.8l-6.8-4.1c0-0.2,0.1-0.4,0.1-0.6s0-0.4-0.1-0.6l6.8-4.2
		c0.6,0.5,1.5,0.8,2.4,0.8c2.2,0,4-1.8,4-4s-1.9-3.8-4-3.8s-4,1.8-4,4c0,0.2,0,0.4,0.1,0.6L6.7,35c-0.6-0.5-1.5-0.8-2.3-0.8
		c-2.2,0-4,1.8-4,4c0,2.2,1.8,3.9,4,3.9c0.9,0,1.7-0.3,2.4-0.8l6.8,4.1c0,0.2-0.1,0.4-0.1,0.6c0,2.2,1.8,4,4,4s4-1.8,4-4
		S19.6,42,17.5,42z"/>
</g>
</svg>
