<?xml version="1.0" encoding="utf-8"?>
<!-- Generator: Adobe Illustrator 18.0.0, SVG Export Plug-In . SVG Version: 6.00 Build 0)  -->
<!DOCTYPE svg PUBLIC "-//W3C//DTD SVG 1.1//EN" "http://www.w3.org/Graphics/SVG/1.1/DTD/svg11.dtd">
<svg version="1.1" id="Layer_1" xmlns="http://www.w3.org/2000/svg" xmlns:xlink="http://www.w3.org/1999/xlink" x="0px" y="0px"
	 width="23.3px" height="50px" viewBox="0 0 23.3 50" enable-background="new 0 0 23.3 50" xml:space="preserve">
<path fill="#DCDCDC" d="M15.4,2.6C12-0.9,6.3-0.9,2.9,2.6C-0.6,6-0.7,11.6,2.8,15.1c3.5,3.5,9.1,3.5,12.6,0.1
	C18.8,11.7,18.9,6.1,15.4,2.6z M13.5,13.3c-2.4,2.4-6.4,2.4-8.8,0c-2.4-2.4-2.4-6.4,0-8.8c2.4-2.4,6.4-2.4,8.8,0
	C15.9,7,15.9,10.9,13.5,13.3z M22.7,19.2l-5.2-4.7c-0.1-0.1-0.2-0.1-0.3-0.2c-0.3,0.5-0.7,1-1.2,1.5c-0.4,0.4-0.9,0.8-1.4,1.1
	c0,0.1,0.1,0.2,0.2,0.3l4.6,5.3c0.5,0.6,1.3,0.6,1.9,0.1l1.6-1.6C23.2,20.5,23.2,19.7,22.7,19.2z"/>
<path fill="#FFFFFF" d="M15.4,29.7c-3.5-3.5-9.1-3.5-12.6-0.1c-3.5,3.5-3.5,9.1-0.1,12.6c3.5,3.5,9.1,3.5,12.6,0.1
	C18.8,38.8,18.9,33.1,15.4,29.7z M13.5,40.3c-2.4,2.4-6.4,2.4-8.8,0c-2.4-2.4-2.4-6.4,0-8.8c2.4-2.4,6.4-2.4,8.8,0
	C15.9,34,15.9,37.9,13.5,40.3z M22.7,46.2l-5.2-4.7c-0.1-0.1-0.2-0.1-0.3-0.2c-0.3,0.5-0.7,1-1.2,1.5c-0.4,0.4-0.9,0.8-1.4,1.1
	c0,0.1,0.1,0.2,0.2,0.3l4.6,5.3c0.5,0.6,1.3,0.6,1.9,0.1l1.6-1.6C23.2,47.6,23.2,46.7,22.7,46.2z"/>
</svg>
