<?xml version="1.0" encoding="utf-8"?>
<!-- Generator: Adobe Illustrator 18.0.0, SVG Export Plug-In . SVG Version: 6.00 Build 0)  -->
<!DOCTYPE svg PUBLIC "-//W3C//DTD SVG 1.1//EN" "http://www.w3.org/Graphics/SVG/1.1/DTD/svg11.dtd">
<svg version="1.1" id="Layer_1" xmlns="http://www.w3.org/2000/svg" xmlns:xlink="http://www.w3.org/1999/xlink" x="0px" y="0px"
	 width="30px" height="80px" viewBox="0 0 30 80" enable-background="new 0 0 30 80" xml:space="preserve">
<g>
	<path fill="#0F80C4" d="M20.5,18.7c-0.9,0-1.7,0.3-2.4,0.8l-6.8-4.1c0-0.2,0.1-0.4,0.1-0.6s0-0.4-0.1-0.6l6.8-4.2
		c0.6,0.5,1.5,0.8,2.4,0.8c2.2,0,4-1.8,4-4S22.6,3,20.5,3s-4,1.8-4,4c0,0.2,0,0.4,0.1,0.6l-6.9,4.1c-0.6-0.5-1.5-0.8-2.3-0.8
		c-2.2,0-4,1.8-4,4s1.8,3.9,4,3.9c0.9,0,1.7-0.3,2.4-0.8l6.8,4.1c0,0.2-0.1,0.4-0.1,0.6c0,2.2,1.8,4,4,4s4-1.8,4-4
		S22.6,18.7,20.5,18.7z"/>
</g>
<g>
	<path fill="#0F80C4" d="M20.5,68.7c-0.9,0-1.7,0.3-2.4,0.8l-6.8-4.1c0-0.2,0.1-0.4,0.1-0.6s0-0.4-0.1-0.6l6.8-4.2
		c0.6,0.5,1.5,0.8,2.4,0.8c2.2,0,4-1.8,4-4s-1.9-3.9-4-3.9s-4,1.8-4,4c0,0.2,0,0.4,0.1,0.6l-6.9,4.1c-0.6-0.5-1.5-0.8-2.3-0.8
		c-2.2,0-4,1.8-4,4c0,2.2,1.8,3.9,4,3.9c0.9,0,1.7-0.3,2.4-0.8l6.8,4.1c0,0.2-0.1,0.4-0.1,0.6c0,2.2,1.8,4,4,4s4-1.8,4-4
		C24.5,70.3,22.6,68.7,20.5,68.7z"/>
</g>
</svg>
