<?xml version="1.0" encoding="utf-8"?>
<!-- Generator: Adobe Illustrator 18.0.0, SVG Export Plug-In . SVG Version: 6.00 Build 0)  -->
<!DOCTYPE svg PUBLIC "-//W3C//DTD SVG 1.1//EN" "http://www.w3.org/Graphics/SVG/1.1/DTD/svg11.dtd">
<svg version="1.1" id="Layer_1" xmlns="http://www.w3.org/2000/svg" xmlns:xlink="http://www.w3.org/1999/xlink" x="0px" y="0px"
	 width="178px" height="128px" viewBox="0 0 178 128" enable-background="new 0 0 178 128" xml:space="preserve">
<g>
	<g>
		<polygon fill="#9FC8E1" points="89,128 0,77.5 0,51.4 89,101.9 		"/>
		<polygon fill="#7CB3D6" points="178,77.5 89,128 89,101.9 178,51.4 		"/>
	</g>
	<polygon fill="#FFFFFF" points="0,51.4 89,0.7 178,51.4 89,101.9 	"/>
	<path fill="#C9DEEC" d="M76.6,71.8c-2.7,0-5.3-0.7-7.5-1.9c-2.6-1.5-4.1-3.7-4.1-6.1c0-1.5,0.6-2.9,1.7-4c-2.3-1.9-3.5-4.3-3.5-6.8
		c0-2.7,1.6-5.2,4.4-6.8c0.8-0.5,1.7-0.8,2.6-1.2c-0.8-1.6-1.2-3.4-0.9-5.1c0.4-2.6,2.1-4.9,4.9-6.5c2.7-1.6,6.2-2.4,10.1-2.4
		c4.6,0,9.2,1.2,12.7,3.2c0.5,0.3,0.9,0.6,1.3,0.9l0.8,0.5l0.7-0.4c2.1-1.2,4.8-1.9,7.8-1.9c3.5,0,7,0.9,9.7,2.5
		c3.2,1.9,5.1,4.6,5.1,7.5c0,2.5-1.5,4.9-4.1,6.3L82.7,70.3C81,71.3,78.9,71.8,76.6,71.8C76.6,71.8,76.6,71.8,76.6,71.8z"/>
	<linearGradient id="SVGID_1_" gradientUnits="userSpaceOnUse" x1="108.7164" y1="34.2051" x2="69.0435" y2="57.629">
		<stop  offset="0" style="stop-color:#379FD2"/>
		<stop  offset="1" style="stop-color:#1B538D"/>
	</linearGradient>
	<path fill="url(#SVGID_1_)" d="M117,46.8c3.7-2.1,3.2-5.9-1-8.3c-4.3-2.5-10.7-2.7-14.4-0.6l-0.1,0.1l-2.3,1.4l-2.5-1.7
		c-0.4-0.2-0.7-0.5-1.1-0.7c-5.8-3.4-14.7-3.7-19.7-0.8c-3.8,2.2-4.5,5.8-1.6,9l1.6,1.8l-3,0.6c-1.4,0.3-2.6,0.7-3.6,1.3
		c-4.2,2.4-3.7,6.7,1,9.5l2.5,1.5L70.3,61c-0.1,0.1-0.2,0.1-0.3,0.2c-2.6,1.5-2.3,4.2,0.8,6c3.1,1.8,7.7,2,10.4,0.4L117,46.8z"/>
</g>
</svg>
