<?xml version="1.0" encoding="utf-8"?>
<!-- Generator: Adobe Illustrator 18.0.0, SVG Export Plug-In . SVG Version: 6.00 Build 0)  -->
<!DOCTYPE svg PUBLIC "-//W3C//DTD SVG 1.1//EN" "http://www.w3.org/Graphics/SVG/1.1/DTD/svg11.dtd">
<svg version="1.1" id="Layer_1" xmlns="http://www.w3.org/2000/svg" xmlns:xlink="http://www.w3.org/1999/xlink" x="0px" y="0px"
	 width="178px" height="128px" viewBox="0 0 178 128" enable-background="new 0 0 178 128" xml:space="preserve">
<g>
	<g>
		<polygon fill="#9FC8E1" points="89,128 0,77.5 0,51.4 89,101.9 		"/>
		<polygon fill="#7CB3D6" points="178,77.5 89,128 89,101.9 178,51.4 		"/>
	</g>
	<polygon fill="#FFFFFF" points="0,51.4 89,0.7 178,51.4 89,101.9 	"/>
	<path fill="#C9DEEC" d="M135,43.2c-1.2-2.1-3.8-3.4-6.7-3.4c-0.2,0-0.3,0-0.5,0c0-0.3,0-0.7-0.1-1.1c-0.4-1.9-1.9-3.4-4.1-4.2
		c-1-0.4-2.1-0.5-3.1-0.5c-2,0-3.7,0.6-4.9,1.8c-0.1,0-0.2,0-0.4,0c-1.2-1.9-3.7-3.2-6.5-3.2c-0.3,0-0.6,0-1,0.1
		c-0.3,0-0.7,0.1-1,0.2c0.2-1,0-2-0.5-3c-0.8-1.4-2.3-2.3-4-2.6c-0.5-1.3-1.6-2.3-3.1-2.9c-0.7-0.3-1.5-0.4-2.3-0.4
		c-0.9,0-1.8,0.2-2.6,0.5c-1-0.8-2.5-1.3-4-1.3c-0.2,0-0.5,0-0.7,0c-1.6,0.2-2.9,0.9-3.7,2c-0.2,0-0.3,0-0.5,0c-1.6,0-3.1,0.6-4,1.6
		c-1,1.1-1.4,2.6-1.1,4c0,0.1,0.1,0.3,0.1,0.4c-0.1,0.1-0.1,0.2-0.2,0.3c-0.7,1.3-0.6,2.8,0.1,4.1c0.8,1.4,2.3,2.4,4,2.6
		c0.1,0.3,0.3,0.6,0.5,0.9c-2.1-0.8-4.4-1.4-6.7-1.9c-1-2.1-3.5-3.7-6.5-3.8c-0.1,0-0.3,0-0.4,0c-2.2,0-4.1,0.8-5.2,2.1
		c-0.3,0.4-0.6,0.8-0.8,1.3c-2.1,0.3-4,0.7-5.8,1.3l-0.3-0.2c-1.3-0.7-2.8-1.1-4.4-1.1c-1.4,0-2.8,0.3-3.8,0.9
		c-1.7,1-2.6,2.6-2.6,4.4c0,1.1,0.4,2.2,1.1,3.1c-0.2,0.4-0.4,0.7-0.6,1.1c-2.1,0-4,0.8-5.1,2.1c-1,1.1-1.4,2.4-1.2,3.8
		c0.4,2.9,3.3,5.1,7,5.3l0.1,0c0.5,0.8,1,1.5,1.6,2.2c-0.3,0.6-0.5,1.4-0.5,2.1c0,1.9,1.1,3.6,3,4.7c1.3,0.7,2.8,1.1,4.4,1.1
		c1.4,0,2.7-0.3,3.8-0.9c2.2,0.8,4.5,1.5,6.9,1.9c1,2.1,3.5,3.7,6.5,3.8c0.1,0,0.3,0,0.4,0c2.2,0,4.1-0.8,5.2-2.1
		c0.3-0.4,0.6-0.8,0.8-1.3c2.1-0.3,4-0.7,5.8-1.3l0.3,0.2c1.3,0.7,2.8,1.1,4.4,1.1c1.4,0,2.8-0.3,3.8-0.9c1.7-1,2.7-2.6,2.7-4.4
		c0-1.1-0.4-2.2-1.1-3.1c0.2-0.4,0.4-0.7,0.6-1.1c1.7,0,3.3-0.5,4.5-1.5c0.6,0.4,1.2,0.8,1.9,1c1,0.4,2.1,0.5,3.1,0.5
		c2,0,3.7-0.6,4.9-1.8c0.1,0,0.2,0,0.4,0c1.2,1.9,3.7,3.2,6.5,3.2c0.3,0,0.6,0,1-0.1c2.3-0.2,4.1-1.4,4.9-3.1c0.2-0.3,0.3-0.7,0.4-1
		c0.8,0.3,1.8,0.4,2.6,0.4c2.1,0,3.9-0.7,5.1-2c1.1-1.2,1.6-2.8,1.2-4.4c-0.2-0.7-0.4-1.3-0.8-1.8c0.5-0.4,0.9-1,1.2-1.6
		C135.9,46.3,135.9,44.6,135,43.2z M74.2,62.9c-8.6,0-15.5-4.3-15.5-9.6s7-9.6,15.5-9.6s15.5,4.3,15.5,9.6S82.8,62.9,74.2,62.9z
		 M93.1,35.6c-2.8-0.2-5-1.7-4.9-3.3s2.5-2.8,5.3-2.6c2.8,0.2,5,1.7,4.9,3.3C98.3,34.6,95.9,35.8,93.1,35.6z M113.5,52.1
		c-4.7-0.3-8.3-2.8-8.1-5.6c0.2-2.8,4.1-4.7,8.8-4.4c4.7,0.3,8.3,2.8,8.1,5.6C122.1,50.4,118.2,52.4,113.5,52.1z"/>
	<linearGradient id="SVGID_1_" gradientUnits="userSpaceOnUse" x1="97.6334" y1="40.3333" x2="70.8892" y2="70.5965">
		<stop  offset="0" style="stop-color:#379FD2"/>
		<stop  offset="1" style="stop-color:#1B538D"/>
	</linearGradient>
	<path fill="url(#SVGID_1_)" d="M76.6,51.3c-2-1.2-5-1.3-6.7-0.3c-1.7,1-1.5,2.7,0.5,3.9c2,1.2,5,1.3,6.7,0.3
		C78.8,54.2,78.6,52.4,76.6,51.3z M85.8,34.6l1.4-0.2c0.4,0.4,0.9,0.7,1.5,1.1L88,36.2c-0.4,0.4-0.1,1.1,0.8,1.4
		c0.8,0.3,1.9,0.2,2.3-0.3l0.7-0.7c0.7,0.2,1.5,0.2,2.2,0.3l0.5,0.9c0.3,0.5,1.3,0.9,2.2,0.8c0.9-0.1,1.4-0.6,1.1-1.2l-0.5-0.9
		c0.6-0.2,1.2-0.4,1.7-0.7l1.3,0.5c0.8,0.3,1.9,0.2,2.3-0.3c0.4-0.4,0.1-1.1-0.8-1.4l-1.3-0.5c0.2-0.4,0.2-0.8,0.2-1.2l1.4-0.2
		c0.9-0.1,1.4-0.6,1.1-1.2c-0.3-0.5-1.3-0.9-2.2-0.8L99.5,31c-0.4-0.4-0.9-0.7-1.5-1.1l0.7-0.7c0.4-0.4,0.1-1.1-0.8-1.4
		c-0.8-0.3-1.9-0.2-2.3,0.3l-0.7,0.7c-0.7-0.2-1.5-0.2-2.2-0.3l-0.5-0.9c-0.3-0.5-1.3-0.9-2.2-0.8c-0.9,0.1-1.4,0.6-1.1,1.2l0.5,0.9
		c-0.6,0.2-1.2,0.4-1.7,0.7l-1.3-0.5c-0.8-0.3-1.9-0.2-2.3,0.3c-0.4,0.4-0.1,1.1,0.8,1.4l1.3,0.5c-0.2,0.4-0.2,0.8-0.2,1.2l-1.4,0.2
		c-0.9,0.1-1.4,0.6-1.1,1.2C83.9,34.3,84.9,34.7,85.8,34.6z M90,31.5c0.9-1,3.1-1.2,4.9-0.5c1.8,0.7,2.6,2,1.7,3
		c-0.9,1-3.1,1.2-4.9,0.5C89.9,33.8,89.1,32.5,90,31.5z M131.8,45c-0.5-1-2.3-1.6-3.9-1.4l-2.6,0.3c-0.7-0.7-1.6-1.4-2.6-1.9
		l1.2-1.3c0.8-0.8,0.1-1.9-1.4-2.5c-1.5-0.6-3.4-0.4-4.2,0.5l-1.2,1.3c-1.3-0.3-2.7-0.4-4-0.5l-0.9-1.5c-0.5-1-2.3-1.6-3.9-1.4
		c-1.6,0.2-2.5,1.1-2,2.1l0.9,1.5c-1.1,0.3-2.1,0.7-3,1.3l-2.4-0.9c-1.5-0.6-3.4-0.4-4.2,0.5s-0.1,1.9,1.4,2.5l2.4,0.9
		c-0.3,0.7-0.4,1.5-0.3,2.3l-2.6,0.3c-1.6,0.2-2.5,1.1-2,2.1c0.5,1,2.3,1.6,3.9,1.4l2.6-0.3c0.7,0.7,1.6,1.4,2.6,1.9l-1.2,1.3
		c-0.8,0.8-0.1,1.9,1.4,2.5c1.5,0.6,3.4,0.4,4.2-0.5l1.2-1.3c1.3,0.3,2.7,0.4,4,0.5l0.9,1.5c0.5,1,2.3,1.6,3.9,1.4
		c1.6-0.2,2.5-1.1,2-2.1l-0.9-1.5c1.1-0.3,2.1-0.7,3-1.3l2.4,0.9c1.5,0.6,3.4,0.4,4.2-0.5c0.8-0.8,0.1-1.9-1.4-2.5l-2.4-0.9
		c0.3-0.7,0.4-1.5,0.3-2.3l2.6-0.3C131.4,46.9,132.3,46,131.8,45z M120.1,49.1c-1.6,1.7-5.6,2.2-8.9,1c-3.3-1.2-4.6-3.6-3-5.3
		c1.6-1.7,5.6-2.2,8.9-1C120.4,45,121.7,47.4,120.1,49.1z M97.4,52.3L95,52.2c-0.8-2.1-2.4-4.1-4.9-5.9l1.6-0.9
		c1.1-0.7,1-1.8-0.3-2.6c-1.3-0.8-3.3-0.8-4.5-0.2l-1.6,0.9c-3.2-1.4-6.7-2.4-10.3-2.8l-0.2-1.4c-0.1-1-1.7-1.9-3.4-2
		c-1.7-0.1-3.1,0.7-2.9,1.7l0.2,1.4c-3.5,0.1-6.9,0.8-9.7,2l-1.8-1c-1.3-0.8-3.3-0.8-4.5-0.2c-1.1,0.7-1,1.8,0.3,2.6l1.8,1
		c-2,1.6-3.2,3.6-3.4,5.6L49,50.3C47.3,50.2,46,51,46.1,52c0.1,1,1.7,1.9,3.4,2l2.4,0.1c0.8,2.1,2.4,4.1,4.9,5.9l-1.6,0.9
		c-1.1,0.7-1,1.8,0.3,2.6c1.3,0.8,3.3,0.8,4.5,0.2l1.6-0.9c3.2,1.4,6.7,2.4,10.3,2.8l0.2,1.4c0.1,1,1.7,1.9,3.4,2
		c1.7,0.1,3.1-0.7,2.9-1.7l-0.2-1.4c3.5-0.1,6.9-0.8,9.7-2l1.8,1c1.3,0.8,3.3,0.8,4.5,0.2c1.1-0.7,1-1.8-0.3-2.6l-1.8-1
		c2-1.6,3.2-3.6,3.4-5.6l2.4,0.1c1.7,0.1,3.1-0.7,2.9-1.7C100.7,53.2,99.1,52.3,97.4,52.3z M83.7,59c-4.9,2.8-13.5,2.5-19.2-0.8
		c-5.7-3.3-6.3-8.2-1.4-11.1s13.5-2.5,19.2,0.8C88,51.2,88.7,56.2,83.7,59z"/>
</g>
</svg>
