<?xml version="1.0" encoding="utf-8"?>
<!-- Generator: Adobe Illustrator 18.0.0, SVG Export Plug-In . SVG Version: 6.00 Build 0)  -->
<!DOCTYPE svg PUBLIC "-//W3C//DTD SVG 1.1//EN" "http://www.w3.org/Graphics/SVG/1.1/DTD/svg11.dtd">
<svg version="1.1" id="Layer_1" xmlns="http://www.w3.org/2000/svg" xmlns:xlink="http://www.w3.org/1999/xlink" x="0px" y="0px"
	 width="50px" height="55px" viewBox="0 0 50 55" enable-background="new 0 0 50 55" xml:space="preserve">
<path fill="#FFFFFF" d="M49.6,47.5L37.7,34.9c3.1-3.7,4.9-8.4,4.9-13.6C42.6,9.6,33.1,0,21.3,0C9.6,0,0,9.6,0,21.3
	s9.6,21.3,21.3,21.3c3.7,0,7.2-1,10.3-2.7l10.3,13.9c0.9,1.1,3.2,1.1,5.7-1C50.1,50.8,50.4,48.3,49.6,47.5z M3.8,21.3
	c0-9.6,7.8-17.5,17.5-17.5c9.6,0,17.5,7.8,17.5,17.5c0,9.6-7.8,17.5-17.5,17.5C11.7,38.8,3.8,31,3.8,21.3z"/>
</svg>
