<?xml version="1.0" encoding="utf-8"?>
<!-- Generator: Adobe Illustrator 18.0.0, SVG Export Plug-In . SVG Version: 6.00 Build 0)  -->
<!DOCTYPE svg PUBLIC "-//W3C//DTD SVG 1.1//EN" "http://www.w3.org/Graphics/SVG/1.1/DTD/svg11.dtd">
<svg version="1.1" id="Layer_1" xmlns="http://www.w3.org/2000/svg" xmlns:xlink="http://www.w3.org/1999/xlink" x="0px" y="0px"
	 width="17px" height="17px" viewBox="0 0 17 17" enable-background="new 0 0 17 17" xml:space="preserve">
<path fill="#4B5256" d="M8.5,1C4.4,1,1,4.4,1,8.5C1,12.7,4.4,16,8.5,16c4.1,0,7.5-3.4,7.5-7.5C16,4.4,12.6,1,8.5,1z M8.5,14.8
	C5,14.8,2.2,12,2.2,8.5c0-3.5,2.8-6.3,6.3-6.3c3.5,0,6.3,2.8,6.3,6.3C14.8,12,12,14.8,8.5,14.8z M11.8,8.8H9.3V4.6
	c0-0.5-0.4-0.8-0.8-0.8S7.7,4.2,7.7,4.6v5c0,0.5,0.4,0.8,0.8,0.8h3.3c0.5,0,0.8-0.4,0.8-0.8S12.2,8.8,11.8,8.8z"/>
</svg>
