<?xml version="1.0" encoding="utf-8"?>
<!-- Generator: Adobe Illustrator 18.0.0, SVG Export Plug-In . SVG Version: 6.00 Build 0)  -->
<!DOCTYPE svg PUBLIC "-//W3C//DTD SVG 1.1//EN" "http://www.w3.org/Graphics/SVG/1.1/DTD/svg11.dtd">
<svg version="1.1" id="Layer_1" xmlns="http://www.w3.org/2000/svg" xmlns:xlink="http://www.w3.org/1999/xlink" x="0px" y="0px"
	 width="23px" height="23px" viewBox="0 0 23 23" enable-background="new 0 0 23 23" xml:space="preserve">
<path fill="#DCDCDC" d="M0,12.2c2.9,0,5.5,1.1,7.6,3.1c2,2,3.1,4.7,3.1,7.6h4.4C15.1,14.6,8.3,7.8,0,7.8L0,12.2z M0,4.4
	c10.2,0,18.5,8.3,18.5,18.6h4.4C22.9,10.3,12.6,0,0,0L0,4.4z M6.1,19.9c0,1.7-1.4,3.1-3.1,3.1S0,21.6,0,19.9c0-1.7,1.4-3.1,3.1-3.1
	S6.1,18.2,6.1,19.9z"/>
</svg>
