<?xml version="1.0" encoding="utf-8"?>
<!-- Generator: Adobe Illustrator 18.1.1, SVG Export Plug-In . SVG Version: 6.00 Build 0)  -->
<!DOCTYPE svg PUBLIC "-//W3C//DTD SVG 1.1//EN" "http://www.w3.org/Graphics/SVG/1.1/DTD/svg11.dtd">
<svg version="1.1" id="Layer_1" xmlns="http://www.w3.org/2000/svg" xmlns:xlink="http://www.w3.org/1999/xlink" x="0px" y="0px"
	 width="84px" height="84px" viewBox="0 0 84 84" enable-background="new 0 0 84 84" xml:space="preserve">
<g>
	<path fill="#1280C4" d="M40.6,40.6c0,0.8,0.6,1.4,1.4,1.4c0.7,0,1.4-0.6,1.4-1.4c0-1.6,0.6-3.1,1.6-4.4c2.3-2.7,4-5.7,5.1-8.7
		c0.1-0.4,0.1-0.9-0.2-1.2c-0.3-0.4-0.7-0.6-1.1-0.6H35.2c-0.4,0-0.9,0.2-1.1,0.6c-0.3,0.4-0.3,0.8-0.2,1.2c1.1,3.1,2.8,6,5.1,8.7
		C40.1,37.5,40.6,39,40.6,40.6L40.6,40.6z M40.6,40.6"/>
	<path fill="#1280C4" d="M43.4,46.1c0-0.8-0.6-1.4-1.4-1.4c-0.8,0-1.4,0.6-1.4,1.4c0,2-1.2,3.9-3.3,5.5c-4.6,3.4-8,7-10.1,10.9
		c-0.2,0.4-0.2,0.9,0,1.4c0.2,0.4,0.7,0.7,1.2,0.7h27.3c0.5,0,0.9-0.3,1.2-0.7c0.3-0.4,0.3-0.9,0-1.4c-2.2-3.8-5.6-7.5-10.1-10.9
		C44.5,50,43.4,48.1,43.4,46.1L43.4,46.1z M43.4,46.1"/>
	<path fill="#1280C4" d="M65.9,66.5H65c-0.9-10.6-7.1-18.8-12-24.5c4.8-5.8,11-13.9,12-24.5h0.8c1.5,0,2.7-1.2,2.7-2.7
		c0-1.5-1.2-2.7-2.7-2.7H18.1c-1.5,0-2.7,1.2-2.7,2.7c0,1.5,1.2,2.7,2.7,2.7H19c0.9,10.6,7.1,18.8,12,24.5c-4.8,5.8-11,13.9-12,24.5
		h-0.8c-1.5,0-2.7,1.2-2.7,2.7s1.2,2.7,2.7,2.7h47.7c1.5,0,2.7-1.2,2.7-2.7S67.4,66.5,65.9,66.5L65.9,66.5z M24.4,66.5
		c1-9.6,7.3-17,11.9-22.5l0.3-0.3c0.9-1,0.9-2.5,0-3.5l-0.3-0.3C31.7,34.4,25.4,27,24.4,17.5h35.2c-1,9.6-7.3,17-11.9,22.5l-0.2,0.3
		c-0.9,1-0.9,2.5,0,3.5l0.2,0.3c4.7,5.5,10.9,12.9,11.9,22.5H24.4z M24.4,66.5"/>
</g>
</svg>
