<?xml version="1.0" encoding="utf-8"?>
<!-- Generator: Adobe Illustrator 18.0.0, SVG Export Plug-In . SVG Version: 6.00 Build 0)  -->
<!DOCTYPE svg PUBLIC "-//W3C//DTD SVG 1.1//EN" "http://www.w3.org/Graphics/SVG/1.1/DTD/svg11.dtd">
<svg version="1.1" id="Layer_1" xmlns="http://www.w3.org/2000/svg" xmlns:xlink="http://www.w3.org/1999/xlink" x="0px" y="0px"
	 width="14px" height="15px" viewBox="0 0 14 15" enable-background="new 0 0 14 15" xml:space="preserve">
<path fill="#151515" d="M6.7,0L4.6,2.3h0v1.4c0,0,1.2,0.6,1.9,1v0.4H0v4.8h6l-1.4,1.3v1.4h1.3l0.8,0.9l5.7-5.4H14V6.8L6.7,0z"/>
<path fill="#DCDCDC" d="M6.7,1.4L4.6,3.7l3,2.8c0,0,0,0,0.2,0.1c-0.2,0-0.4-0.1-0.6-0.1H0v3.4h7.1h0.5h0c0,0,0,0,0.2,0.1
	c-0.1,0-0.1,0-0.2-0.1l-2.9,2.7L6.7,15L14,8.2L6.7,1.4z"/>
</svg>
