<?xml version="1.0" encoding="utf-8"?>
<!-- Generator: Adobe Illustrator 18.0.0, SVG Export Plug-In . SVG Version: 6.00 Build 0)  -->
<!DOCTYPE svg PUBLIC "-//W3C//DTD SVG 1.1//EN" "http://www.w3.org/Graphics/SVG/1.1/DTD/svg11.dtd">
<svg version="1.1" id="Layer_1" xmlns="http://www.w3.org/2000/svg" xmlns:xlink="http://www.w3.org/1999/xlink" x="0px" y="0px"
	 width="28px" height="28px" viewBox="0 0 28 28" enable-background="new 0 0 28 28" xml:space="preserve">
<polygon fill="#296088" points="13.5,19.6 19.9,13 12,4.8 8.8,7.2 8.8,8.1 9.6,8.1 14.4,13 8.8,18.8 9,18.9 8.8,18.9 8.8,19.8 
	10.1,19.8 12,21.1 13.3,19.8 13.5,19.8 "/>
<path fill="#296088" d="M14,28C6.3,28,0,21.7,0,14C0,6.3,6.3,0,14,0s14,6.3,14,14C28,21.7,21.7,28,14,28z M14,1.7
	C7.2,1.7,1.7,7.2,1.7,14S7.2,26.3,14,26.3c6.8,0,12.3-5.5,12.3-12.3S20.8,1.7,14,1.7z"/>
<polygon fill="#FFFFFF" points="8.8,8.2 14.4,14 8.8,19.8 12,22.1 19.9,14 12,5.8 "/>
</svg>
